<?xml version="1.0" standalone="no"?>
<!DOCTYPE svg PUBLIC "-//W3C//DTD SVG 20010904//EN"
 "http://www.w3.org/TR/2001/REC-SVG-20010904/DTD/svg10.dtd">
<svg version="1.0" xmlns="http://www.w3.org/2000/svg"
 width="320.000000pt" height="320.000000pt" viewBox="0 0 320.000000 320.000000"
 preserveAspectRatio="xMidYMid meet">
<metadata>
Created by potrace 1.14, written by Peter Selinger 2001-2017
</metadata>
<g transform="translate(0.000000,320.000000) scale(0.100000,-0.100000)"
fill="#000000" stroke="none">
<path d="M1598 2827 c-22 -8 -28 -18 -29 -41 -1 -17 -4 -53 -6 -81 -12 -130
-9 -162 16 -189 31 -33 45 -33 70 3 22 31 27 66 11 76 -23 14 -9 35 24 35 43
0 57 -26 21 -40 -32 -12 -32 -40 0 -79 71 -83 170 -49 190 67 4 25 2 56 -5 77
-9 27 -9 43 1 70 12 33 12 37 -14 63 -37 37 -60 22 -68 -46 -9 -72 -15 -76
-55 -44 -33 27 -44 55 -24 67 21 13 8 34 -33 54 -48 23 -59 24 -99 8z m220
-213 c35 -17 41 -38 16 -52 -25 -14 -64 -2 -64 18 0 18 9 50 15 50 1 0 16 -7
33 -16z"/>
<path d="M1295 2776 l-49 -44 12 -78 c7 -44 12 -92 12 -107 0 -20 11 -40 35
-64 28 -28 37 -32 54 -24 11 6 23 20 26 31 8 24 18 25 35 5 29 -35 67 -11 77
50 5 28 1 43 -17 67 -19 25 -20 34 -11 55 34 74 -11 153 -87 153 -32 0 -47 -8
-87 -44z m97 -79 c-1 -14 2 -28 8 -32 18 -11 11 -41 -15 -65 l-25 -23 0 41 c0
30 -6 47 -22 62 -23 21 -18 34 17 43 32 7 40 2 37 -26z"/>
<path d="M834 2785 c-4 -8 -3 -26 0 -40 5 -21 3 -25 -17 -25 -67 0 -121 -106
-87 -171 14 -26 32 -24 61 7 13 14 44 40 68 56 l44 31 -6 54 c-8 77 -47 131
-63 88z"/>
<path d="M1125 2730 c-16 -26 -16 -148 -1 -215 15 -62 46 -115 67 -115 16 0
39 59 39 97 -1 46 -17 70 -50 75 -36 5 -40 45 -6 54 14 3 26 10 26 14 0 5 3
15 6 24 4 10 -6 27 -27 46 -36 32 -44 36 -54 20z"/>
<path d="M1987 2713 c-21 -75 -31 -138 -31 -200 -1 -69 1 -73 33 -107 93 -96
186 -50 186 90 0 35 6 58 18 71 22 25 22 36 -5 78 -17 26 -30 35 -50 35 -18 0
-33 9 -44 25 -13 20 -24 25 -59 25 -33 0 -45 -4 -48 -17z m115 -107 c20 13 27
-20 8 -33 -28 -20 -36 -77 -16 -108 16 -24 15 -25 -2 -25 -10 0 -29 11 -41 24
-21 23 -22 25 -7 54 21 41 20 64 -4 94 -27 35 -13 43 22 13 16 -14 34 -22 40
-19z"/>
<path d="M844 2558 c-16 -12 -32 -27 -37 -33 -12 -16 -56 -89 -63 -103 -7 -14
23 -130 38 -147 4 -5 8 -15 8 -23 0 -8 9 -27 21 -44 26 -35 68 -36 84 0 5 12
17 22 25 22 67 2 109 148 60 210 -11 14 -20 39 -20 56 0 40 -34 84 -64 84 -13
0 -36 -10 -52 -22z m36 -122 c0 -34 24 -51 44 -31 9 9 20 13 26 10 15 -9 12
-52 -5 -69 -18 -17 -37 -10 -97 39 l-37 29 21 23 c28 30 48 29 48 -1z"/>
<path d="M2262 2543 c-18 -34 -44 -123 -40 -135 3 -7 -1 -19 -9 -26 -17 -18
-17 -64 1 -107 26 -62 58 -40 97 67 10 29 17 59 14 66 -3 8 6 27 19 43 l24 29
-21 40 c-17 31 -28 40 -49 40 -16 0 -31 -7 -36 -17z"/>
<path d="M2396 2350 c-66 -117 -72 -137 -53 -183 16 -38 33 -45 66 -27 17 9
19 5 18 -38 -1 -50 27 -122 48 -122 6 0 19 -18 28 -40 17 -45 38 -57 75 -44
38 14 66 59 72 117 l6 52 22 -45 c11 -25 22 -58 24 -75 3 -28 1 -30 -30 -30
-42 0 -52 -17 -52 -93 0 -47 4 -64 15 -68 22 -9 42 12 86 90 22 39 45 78 51
87 8 12 6 30 -10 75 -21 60 -21 77 0 56 19 -19 33 -15 72 21 43 40 48 74 11
83 -14 3 -30 15 -36 25 -24 45 -79 -1 -79 -66 l0 -27 -42 36 c-23 20 -47 36
-54 36 -7 0 -27 -27 -45 -60 -24 -46 -37 -60 -54 -60 -13 0 -26 7 -29 16 -7
19 10 44 30 44 7 0 25 11 40 25 24 22 26 30 22 77 -2 30 -15 75 -28 101 -26
51 -90 117 -114 117 -8 0 -35 -36 -60 -80z m125 -97 c11 -26 19 -56 17 -67 -4
-26 -47 -35 -60 -13 -5 9 -16 13 -29 10 -19 -5 -20 -4 -10 15 6 11 15 23 20
26 5 3 12 22 15 41 9 47 23 44 47 -12z m68 -250 c13 -27 4 -47 -16 -35 -6 4
-15 20 -18 35 -10 36 17 37 34 0z"/>
<path d="M623 2318 c-37 -18 -40 -74 -6 -135 21 -40 25 -55 16 -64 -22 -22
-43 -2 -43 40 0 50 -12 58 -52 34 -24 -14 -34 -29 -40 -56 -7 -34 -3 -47 36
-115 24 -42 55 -85 69 -96 24 -18 27 -18 52 -2 14 9 41 40 60 69 60 91 56 191
-9 248 -14 13 -26 30 -26 40 0 46 -16 57 -57 37z"/>
<path d="M1613 2308 c-26 -35 -55 -130 -60 -198 -3 -41 -10 -81 -15 -87 -16
-20 -1 -43 26 -43 30 0 60 38 46 55 -7 9 -6 16 4 25 21 17 37 3 30 -26 -11
-43 35 -70 75 -45 12 8 12 12 2 24 -7 9 -14 44 -17 79 -6 73 -17 120 -44 183
-20 47 -31 54 -47 33z m24 -144 c-3 -3 -12 -4 -19 -1 -8 3 -5 6 6 6 11 1 17
-2 13 -5z m4 -57 c-5 -5 -18 -7 -28 -3 -14 6 -15 9 -4 16 19 11 46 1 32 -13z"/>
<path d="M1183 2168 c-19 -25 -53 -135 -58 -189 -3 -30 -8 -69 -11 -86 l-5
-33 -64 0 c-51 0 -65 3 -65 15 0 8 -3 15 -7 16 -5 0 -34 2 -65 3 -66 3 -65 4
-73 -92 -2 -35 -7 -68 -10 -73 -4 -5 -26 -9 -49 -9 -41 0 -44 -2 -51 -32 -3
-18 -9 -56 -12 -85 -4 -43 -2 -53 14 -61 10 -5 378 -8 892 -8 784 1 875 3 884
17 6 9 7 46 2 92 l-7 77 -53 0 c-30 0 -57 5 -63 13 -5 6 -10 40 -11 75 0 35
-3 68 -7 74 -4 5 -21 8 -38 5 -17 -2 -40 -1 -51 3 -24 9 -45 2 -45 -15 0 -14
-159 -30 -171 -17 -11 11 9 52 26 52 18 0 18 0 4 76 -12 69 -57 194 -70 194
-27 0 -75 -135 -83 -236 -3 -36 -8 -70 -11 -75 -4 -5 -24 -9 -46 -9 -32 0 -39
3 -39 20 0 24 17 22 -209 26 -206 3 -191 -3 -221 84 -25 74 -54 55 -81 -55
-22 -87 -49 -98 -49 -20 0 57 -16 130 -44 202 -23 59 -36 72 -53 51z m32 -198
c-3 -5 -13 -10 -21 -10 -8 0 -14 5 -14 10 0 6 9 10 21 10 11 0 17 -4 14 -10z
m820 0 c-3 -5 -12 -10 -20 -10 -8 0 -17 5 -20 10 -4 6 5 10 20 10 15 0 24 -4
20 -10z m-818 -68 c-10 -2 -17 -13 -17 -28 0 -19 -5 -24 -25 -24 -20 0 -25 5
-25 25 0 31 47 60 69 42 12 -10 12 -12 -2 -15z m813 13 c11 -13 8 -15 -15 -15
-23 0 -26 2 -15 15 7 8 14 15 15 15 1 0 8 -7 15 -15z m-1108 -70 c0 -5 -5 -11
-11 -13 -6 -2 -11 4 -11 13 0 9 5 15 11 13 6 -2 11 -8 11 -13z m668 -4 c0 -13
-9 -20 -30 -24 -16 -4 -30 -11 -30 -17 0 -6 37 -10 95 -10 57 0 95 4 95 10 0
6 -6 11 -12 11 -7 1 -20 2 -28 3 -8 0 -16 11 -18 24 -3 21 -1 22 87 22 82 0
91 -2 91 -19 0 -10 -9 -21 -20 -24 -11 -3 -20 -10 -20 -15 0 -15 39 -21 48 -7
5 8 39 14 104 17 l97 4 3 -26 c4 -36 48 -35 65 1 11 23 19 26 48 24 44 -4 55
-11 55 -35 0 -51 3 -50 -227 -50 -206 0 -215 1 -220 20 -5 19 -14 20 -155 20
-141 0 -150 -1 -155 -20 -5 -19 -14 -20 -233 -20 -199 0 -229 2 -234 16 -8 22
-8 64 2 64 4 0 37 2 74 3 65 3 67 2 70 -22 2 -21 8 -26 33 -26 23 0 30 5 35
25 6 24 8 24 90 21 50 -2 88 -8 96 -16 13 -13 64 -9 64 5 0 10 -26 20 -51 20
-21 0 -22 1 -13 24 5 13 24 16 100 16 85 0 94 -2 94 -19z m720 4 c0 -8 -7 -15
-15 -15 -26 0 -18 20 13 29 1 1 2 -6 2 -14z m-1382 -63 c2 -7 -6 -12 -17 -12
-21 0 -27 11 -14 24 9 9 26 2 31 -12z m1392 -3 c0 -5 -9 -9 -20 -9 -22 0 -27
16 -7 23 15 5 27 -1 27 -14z m-562 -111 c-2 -17 -10 -22 -33 -23 -23 0 -31 -5
-33 -22 -3 -23 -26 -31 -37 -13 -3 6 -17 10 -30 10 -13 0 -27 -4 -30 -10 -11
-18 -34 -10 -37 13 -2 18 -10 23 -45 25 -40 3 -54 17 -36 35 3 4 69 7 145 7
138 0 139 0 136 -22z"/>
<path d="M418 1993 c-14 -16 -29 -45 -32 -66 -6 -34 -3 -43 46 -107 63 -82 82
-94 121 -72 39 23 36 64 -10 132 -20 30 -41 58 -47 62 -6 4 -15 22 -21 39 -15
43 -26 45 -57 12z"/>
<path d="M1523 1963 c-86 -6 -63 -33 27 -33 30 0 52 5 60 15 8 9 8 15 2 15 -6
0 -16 1 -24 3 -7 2 -37 2 -65 0z"/>
<path d="M1657 1962 c-35 -7 -10 -27 38 -30 45 -3 77 9 62 24 -8 8 -74 12
-100 6z"/>
<path d="M1008 1474 c-5 -4 -8 -18 -8 -31 0 -35 -17 -40 -168 -42 l-93 -1 31
-44 c37 -55 37 -69 0 -116 -16 -21 -30 -41 -30 -44 0 -4 78 -5 173 -4 l172 3
5 35 5 35 515 0 515 0 3 -37 3 -38 168 0 c92 0 171 3 174 6 4 4 -7 24 -23 44
-32 41 -38 71 -17 92 7 7 21 25 31 39 l17 27 -120 3 c-66 2 -122 7 -126 10 -3
4 -7 19 -9 33 -1 14 -5 29 -9 32 -3 4 -56 3 -116 -1 l-111 -7 3 -77 c2 -75 2
-76 -23 -76 -25 0 -25 1 -23 78 1 42 -3 77 -8 77 -5 0 -9 -33 -9 -73 0 -43 -5
-78 -12 -85 -17 -17 -93 -15 -108 3 -11 13 -14 13 -27 0 -20 -20 -97 -20 -114
1 -11 14 -13 14 -21 0 -7 -13 -26 -16 -93 -14 -72 1 -86 4 -91 20 -3 10 -3 22
0 27 8 13 -4 42 -15 35 -5 -3 -9 -20 -9 -39 0 -37 -10 -48 -34 -39 -10 4 -16
18 -16 39 0 19 -4 37 -10 40 -6 4 -10 -10 -10 -33 0 -43 -20 -61 -41 -36 -10
13 -14 13 -29 -1 -24 -21 -73 -19 -95 5 -16 18 -17 24 -5 48 7 15 14 36 14 47
1 28 58 33 84 7 18 -18 19 -18 31 -1 9 16 24 19 89 19 43 0 83 -5 89 -11 7 -7
12 -3 15 15 l5 26 -176 0 c-97 0 -212 3 -256 6 -44 4 -83 3 -87 -2z m156 -40
c24 -9 19 -33 -9 -40 -31 -8 -35 -44 -5 -44 25 0 38 -29 19 -41 -18 -12 -70
-3 -81 14 -10 15 -10 78 0 93 13 20 49 28 76 18z m948 -16 c4 -7 8 -32 8 -56
0 -36 -4 -44 -25 -54 -38 -17 -79 0 -83 35 -2 16 2 34 8 42 8 9 8 15 0 20 -8
5 -7 11 2 22 14 18 77 11 90 -9z"/>
<path d="M1580 1455 c0 -10 10 -15 30 -15 16 0 33 -7 38 -16 8 -14 10 -14 21
0 17 21 94 21 114 1 13 -13 16 -13 27 0 7 8 25 15 41 15 19 0 29 5 29 15 0 13
-23 15 -150 15 -127 0 -150 -2 -150 -15z"/>
<path d="M2756 1451 c-8 -13 3 -38 20 -45 20 -8 17 -34 -6 -46 -11 -6 -20 -20
-20 -32 0 -12 -7 -45 -16 -74 -10 -28 -14 -58 -11 -66 6 -17 119 -44 136 -34
18 12 12 26 -15 36 -29 11 -28 33 2 39 26 4 44 20 44 38 0 12 -8 14 -36 8 -38
-7 -74 13 -74 42 0 16 44 36 85 37 23 1 30 6 30 21 0 15 -8 21 -30 23 -16 2
-39 11 -50 21 -42 36 -53 42 -59 32z m34 -221 c0 -21 -24 -28 -35 -10 -8 14 3
30 21 30 8 0 14 -9 14 -20z"/>
<path d="M373 1443 c-35 -3 -43 -8 -43 -24 0 -14 7 -19 25 -19 31 0 33 -25 5
-42 -11 -7 -20 -23 -20 -35 0 -27 3 -28 35 -7 25 16 55 13 55 -5 0 -6 -14 -18
-31 -26 -16 -9 -34 -26 -38 -37 -12 -33 2 -79 31 -101 22 -17 31 -18 58 -8 41
14 59 38 59 76 0 33 -12 52 -47 77 l-24 16 21 11 c16 9 21 21 21 56 0 78 1 77
-107 68z m83 -72 c-11 -18 -36 -13 -36 7 0 10 3 22 7 26 10 10 37 -20 29 -33z
m15 -137 c20 -24 -1 -49 -42 -49 -25 0 -35 5 -37 18 -8 41 51 64 79 31z"/>
<path d="M1715 1380 c-7 -12 2 -30 16 -30 5 0 9 9 9 20 0 21 -15 27 -25 10z"/>
<path d="M1855 1380 c-7 -12 2 -30 16 -30 5 0 9 9 9 20 0 21 -15 27 -25 10z"/>
<path d="M1580 1370 c0 -5 7 -10 16 -10 8 0 12 5 9 10 -3 6 -10 10 -16 10 -5
0 -9 -4 -9 -10z"/>
<path d="M2701 1131 c-11 -11 -26 -39 -33 -63 -7 -24 -27 -64 -45 -89 -18 -26
-33 -51 -33 -56 0 -5 -18 -29 -40 -52 -22 -23 -40 -48 -40 -55 0 -8 23 -33 50
-56 42 -35 53 -40 66 -30 13 12 12 16 -7 36 -21 22 -21 24 -5 49 19 29 7 32
-29 9 -23 -15 -25 -15 -25 0 0 13 15 44 37 75 1 2 24 -11 51 -28 27 -17 52
-31 55 -31 9 0 67 86 67 99 0 20 -27 11 -40 -13 -7 -14 -19 -27 -27 -30 -22
-9 -26 20 -8 48 15 22 15 26 2 26 -8 0 -21 -10 -29 -22 -9 -13 -19 -18 -27
-14 -9 6 -9 13 3 32 9 13 16 30 16 39 0 21 28 19 78 -5 22 -11 46 -20 52 -20
18 0 11 31 -12 50 l-22 17 22 12 c12 6 22 9 22 6 0 -3 9 -1 20 5 33 18 25 40
-15 40 -24 0 -37 6 -45 20 -14 25 -35 25 -59 1z m39 -51 c0 -13 -7 -20 -20
-20 -19 0 -27 20 -13 33 13 14 33 6 33 -13z"/>
<path d="M453 1111 c-63 -31 -72 -55 -17 -45 34 6 35 5 25 -14 -6 -11 -16 -22
-23 -24 -6 -2 -9 -12 -5 -21 4 -12 15 -15 44 -11 l38 5 -27 -23 c-28 -24 -37
-48 -18 -48 6 0 37 14 70 30 58 29 59 31 48 56 -10 22 -16 25 -43 20 -44 -9
-50 3 -19 35 22 23 24 30 15 48 -14 26 -23 25 -88 -8z"/>
<path d="M548 932 c-59 -46 -69 -97 -11 -57 29 20 38 4 22 -39 -10 -28 -10
-38 0 -50 12 -14 19 -12 62 19 27 19 54 35 60 35 19 0 3 -79 -20 -104 -39 -41
-17 -71 27 -39 15 11 44 23 65 27 50 9 51 36 1 36 -34 0 -36 2 -31 28 4 20 -2
36 -24 61 -27 32 -30 34 -54 21 -33 -18 -42 -7 -27 34 13 35 7 66 -12 65 -6 0
-32 -17 -58 -37z"/>
<path d="M2385 705 c-30 -31 -32 -56 -6 -72 16 -10 27 -10 55 2 23 10 37 11
41 4 9 -14 -14 -39 -36 -39 -11 0 -19 -7 -19 -15 0 -24 41 -17 72 12 15 15 28
34 28 43 0 21 -31 50 -53 50 -10 0 -17 8 -17 20 0 28 -33 26 -65 -5z m55 -26
c0 -5 -9 -9 -20 -9 -22 0 -27 16 -7 23 15 5 27 -1 27 -14z"/>
<path d="M850 670 c0 -11 5 -20 10 -20 18 0 10 -31 -16 -66 -25 -32 -27 -64
-4 -64 6 0 23 18 38 40 27 39 45 47 70 31 12 -7 11 -14 -2 -39 -23 -45 -20
-77 10 -101 50 -40 113 -15 129 49 9 38 -26 78 -75 86 -23 4 -42 13 -45 23 -4
14 -96 81 -110 81 -3 0 -5 -9 -5 -20z m189 -138 c13 -24 -8 -67 -33 -67 -29 0
-42 28 -28 59 14 30 47 35 61 8z"/>
<path d="M2267 620 c-52 -41 -27 -85 43 -74 38 6 42 5 38 -12 -2 -13 -12 -19
-31 -20 -32 -1 -42 -8 -32 -23 20 -34 105 11 105 56 0 18 -8 28 -30 36 -22 8
-30 17 -28 32 4 28 -32 31 -65 5z m48 -20 c3 -6 -1 -13 -10 -16 -19 -8 -30 0
-20 15 8 14 22 14 30 1z"/>
<path d="M2138 549 c-21 -11 -38 -23 -38 -26 0 -21 56 -123 67 -123 25 0 93
40 93 54 0 15 -36 11 -46 -5 -3 -5 -12 -9 -20 -9 -24 0 -15 36 13 49 18 8 23
15 16 22 -7 7 -17 7 -32 -2 -15 -10 -23 -11 -32 -2 -8 8 -3 16 20 29 60 36 23
47 -41 13z"/>
<path d="M1122 507 c-30 -62 -33 -91 -14 -117 14 -18 30 -26 61 -28 l42 -3 25
57 c16 37 22 60 15 67 -16 16 -38 1 -44 -30 -9 -42 -31 -67 -52 -60 -17 7 -17
29 0 98 9 34 -18 47 -33 16z"/>
<path d="M2003 497 c-52 -19 -55 -26 -31 -95 16 -47 25 -62 40 -62 17 0 19 5
13 30 -8 36 10 40 44 11 23 -20 51 -18 51 3 0 6 -9 17 -21 24 -16 10 -20 20
-16 42 4 19 1 33 -12 44 -20 18 -25 19 -68 3z m37 -43 c0 -8 -9 -14 -20 -14
-22 0 -26 10 -8 28 13 13 28 7 28 -14z"/>
<path d="M1287 463 c-10 -17 -28 -123 -22 -133 11 -17 25 -11 35 15 12 33 28
32 41 -2 20 -53 54 -58 44 -7 -5 27 -2 41 10 54 25 28 11 57 -33 70 -44 12
-69 13 -75 3z m71 -47 c3 -13 -1 -17 -14 -14 -11 2 -20 11 -22 22 -3 13 1 17
14 14 11 -2 20 -11 22 -22z"/>
<path d="M1828 453 c-21 -5 -22 -30 -5 -98 15 -56 40 -68 45 -22 2 19 11 31
27 37 33 12 49 44 35 70 -11 20 -55 25 -102 13z m66 -32 c3 -5 -1 -15 -10 -22
-13 -10 -17 -10 -24 1 -5 8 -6 18 -4 22 7 11 31 10 38 -1z"/>
<path d="M1507 433 c-4 -3 -7 -37 -7 -74 l0 -67 51 -7 c32 -5 55 -3 62 4 11
11 2 17 -38 23 -11 2 -21 11 -23 21 -3 13 3 17 27 17 40 0 40 16 0 24 -36 7
-35 30 2 33 54 3 52 2 39 18 -13 15 -100 22 -113 8z"/>
<path d="M1650 427 c0 -8 9 -22 20 -32 24 -22 25 -38 4 -71 -23 -34 -4 -56 22
-25 22 25 37 27 54 6 14 -17 40 -20 40 -4 0 6 -9 23 -20 38 -19 28 -19 28 0
64 19 36 19 37 2 37 -11 0 -27 -9 -37 -20 l-18 -20 -22 20 c-25 23 -45 26 -45
7z"/>
</g>
</svg>
